<?xml version="1.0" encoding="UTF-8" standalone="no"?>
<!DOCTYPE svg PUBLIC "-//W3C//DTD SVG 1.1//EN" "http://www.w3.org/Graphics/SVG/1.1/DTD/svg11.dtd">
<!-- Created with Vectornator (http://vectornator.io/) -->
<svg height="100%" stroke-miterlimit="10" style="fill-rule:nonzero;clip-rule:evenodd;stroke-linecap:round;stroke-linejoin:round;" version="1.1" viewBox="0 0 24 24" width="100%" xml:space="preserve" xmlns="http://www.w3.org/2000/svg" xmlns:xlink="http://www.w3.org/1999/xlink">
<defs/>
<clipPath id="ArtboardFrame">
<rect height="24" width="24" x="0" y="0"/>
</clipPath>
<g clip-path="url(#ArtboardFrame)" id="Untitled">
<path d="M10.3523 16.1576C10.3523 14.554 10.4958 13.4007 10.7829 12.6979C11.0699 11.9951 11.6787 11.2279 12.6092 10.3964C13.421 9.68362 14.0396 9.06493 14.4653 8.54028C14.891 8.01564 15.1038 7.41674 15.1038 6.74361C15.1038 5.93189 14.8316 5.25875 14.2871 4.7242C13.7427 4.18966 12.9854 3.92238 12.0153 3.92238C11.0056 3.92238 10.2384 4.22925 9.71376 4.84299C9.18911 5.45673 8.8179 6.08037 8.60012 6.71391C8.60012 6.71391 8.09497 7.87014 6.65769 7.45738C5.22042 7.04461 5.54132 5.40724 5.54132 5.40724C5.95708 4.14016 6.7193 3.04137 7.82799 2.11086C8.93669 1.18035 10.3325 0.715092 12.0153 0.715092C14.0941 0.715092 15.6928 1.29419 16.8114 2.45237C17.93 3.61056 18.4893 5.00138 18.4893 6.62482C18.4893 7.61472 18.2764 8.46109 17.8508 9.16392C17.4251 9.86676 16.7569 10.6636 15.8462 11.5545C14.8761 12.4851 14.2871 13.1928 14.0792 13.6779C13.8714 14.1629 13.7674 14.9895 13.7674 16.1576C13.7674 16.1576 13.6801 17.5472 12.0718 17.5472C10.4636 17.5472 10.3523 16.1576 10.3523 16.1576ZM12.0153 23.2849C11.362 23.2849 10.8027 23.0523 10.3374 22.587C9.87215 22.1218 9.63952 21.5625 9.63952 20.9091C9.63952 20.2558 9.87215 19.6965 10.3374 19.2313C10.8027 18.766 11.362 18.5334 12.0153 18.5334C12.6686 18.5334 13.2279 18.766 13.6932 19.2313C14.1584 19.6965 14.3911 20.2558 14.3911 20.9091C14.3911 21.5625 14.1584 22.1218 13.6932 22.587C13.2279 23.0523 12.6686 23.2849 12.0153 23.2849Z" fill="#000000" fill-rule="nonzero" opacity="0" stroke="none"/>
<path d="M17 10C13.141 10 10 13.141 10 17C10 20.859 13.141 24 17 24C20.859 24 24 20.859 24 17C24 13.141 20.859 10 17 10ZM17 22C14.243 22 12 19.757 12 17C12 14.243 14.243 12 17 12C19.757 12 22 14.243 22 17C22 19.757 19.757 22 17 22ZM20.5 17C20.5 17.553 20.053 18 19.5 18L18 18L18 19.5C18 20.053 17.553 20.5 17 20.5C16.447 20.5 16 20.053 16 19.5L16 18L14.5 18C13.947 18 13.5 17.553 13.5 17C13.5 16.447 13.947 16 14.5 16L16 16L16 14.5C16 13.947 16.447 13.5 17 13.5C17.553 13.5 18 13.947 18 14.5L18 16L19.5 16C20.053 16 20.5 16.447 20.5 17ZM9 22L4 22C2.897 22 2 21.103 2 20C2 18.897 2.897 18 4 18L7 18C7.553 18 8 17.553 8 17C8 16.447 7.553 16 7 16L6 16L6 2L15 2C16.654 2 18 3.346 18 5L18 7C18 7.553 18.447 8 19 8C19.553 8 20 7.553 20 7L20 5C20 2.243 17.757 0 15 0L5 0C2.243 0-2.66454e-15 2.243-2.66454e-15 5L-2.66454e-15 20C-2.66454e-15 22.206 1.794 24 4 24L9 24C9.553 24 10 23.553 10 23C10 22.447 9.553 22 9 22ZM2 5C2 3.698 2.839 2.598 4 2.184L4 16C3.268 16 2.591 16.212 2 16.556L2 5Z" fill="#000000" fill-rule="nonzero" opacity="0" stroke="none"/>
<path d="M17 10C13.141 10 10 13.141 10 17C10 20.859 13.141 24 17 24C20.859 24 24 20.859 24 17C24 13.141 20.859 10 17 10ZM17 22C14.243 22 12 19.757 12 17C12 14.243 14.243 12 17 12C19.757 12 22 14.243 22 17C22 19.757 19.757 22 17 22ZM20.5 17C20.5 17.553 20.053 18 19.5 18L18 18L16 18L14.5 18C13.947 18 13.5 17.553 13.5 17C13.5 16.447 13.947 16 14.5 16L16 16L18 16L19.5 16C20.053 16 20.5 16.447 20.5 17ZM9 22L4 22C2.897 22 2 21.103 2 20C2 18.897 2.897 18 4 18L7 18C7.553 18 8 17.553 8 17C8 16.447 7.553 16 7 16L6 16L6 2L15 2C16.654 2 18 3.346 18 5L18 7C18 7.553 18.447 8 19 8C19.553 8 20 7.553 20 7L20 5C20 2.243 17.757 0 15 0L5 0C2.243 0-2.66454e-15 2.243-2.66454e-15 5L-2.66454e-15 20C-2.66454e-15 22.206 1.794 24 4 24L9 24C9.553 24 10 23.553 10 23C10 22.447 9.553 22 9 22ZM2 5C2 3.698 2.839 2.598 4 2.184L4 16C3.268 16 2.591 16.212 2 16.556L2 5Z" fill="#000000" fill-rule="nonzero" opacity="1" stroke="none"/>
<path d="M19.3914 12.6606C18.8082 12.6606 18.3355 12.1879 18.3355 11.6047L18.3355 9.34254L16.2236 9.34254C15.6405 9.34254 15.1677 8.86979 15.1677 8.28663L15.1677 8.18637C15.1677 7.60321 15.6405 7.13047 16.2236 7.13047L18.3355 7.13047L18.3355 4.86826C18.3355 4.2851 18.8082 3.81236 19.3914 3.81236L19.3914 3.81236C19.9745 3.81236 20.4473 4.2851 20.4473 4.86826L20.4473 7.13047L22.5591 7.13047C23.1423 7.13047 23.615 7.60321 23.615 8.18637L23.615 8.28663C23.615 8.86979 23.1423 9.34254 22.5591 9.34254L20.4473 9.34254L20.4473 11.6047C20.4473 12.1879 19.9745 12.6606 19.3914 12.6606L19.3914 12.6606ZM8.83227 10.4486C7.67077 10.4486 6.67646 10.0154 5.84933 9.14898C5.0222 8.28259 4.60864 7.24107 4.60864 6.02443C4.60864 4.80779 5.0222 3.76627 5.84933 2.89988C6.67646 2.03348 7.67077 1.60028 8.83227 1.60028C9.99377 1.60028 10.9881 2.03348 11.8152 2.89988C12.6423 3.76627 13.0559 4.80779 13.0559 6.02443C13.0559 7.24107 12.6423 8.28259 11.8152 9.14898C10.9881 10.0154 9.99377 10.4486 8.83227 10.4486ZM1.44091 22.3997C0.857747 22.3997 0.385 21.927 0.385 21.3438L0.385 16.2C0.385 15.5732 0.538987 14.9972 0.84696 14.4718C1.15493 13.9464 1.5641 13.5455 2.07445 13.269C3.16556 12.6975 4.27427 12.2689 5.40057 11.9832C6.52687 11.6975 7.67077 11.5546 8.83227 11.5546C9.99377 11.5546 11.1377 11.6975 12.264 11.9832C13.3903 12.2689 14.499 12.6975 15.5901 13.269C16.1004 13.5455 16.5096 13.9464 16.8176 14.4718C17.1256 14.9972 17.2795 15.5732 17.2795 16.2L17.2795 21.3438C17.2795 21.927 16.8068 22.3997 16.2236 22.3997L1.44091 22.3997ZM2.49682 20.1876L15.1677 20.1876L15.1677 16.2C15.1677 15.9972 15.1193 15.8129 15.0225 15.6469C14.9257 15.481 14.7982 15.352 14.6398 15.2598C13.6895 14.7621 12.7303 14.3888 11.7624 14.14C10.7945 13.8911 9.81779 13.7667 8.83227 13.7667C7.84676 13.7667 6.87004 13.8911 5.90213 14.14C4.93421 14.3888 3.97509 14.7621 3.02477 15.2598C2.86639 15.352 2.7388 15.481 2.64201 15.6469C2.54521 15.8129 2.49682 15.9972 2.49682 16.2L2.49682 20.1876ZM8.83227 8.2365C9.41302 8.2365 9.91018 8.0199 10.3237 7.58671C10.7373 7.15351 10.9441 6.63275 10.9441 6.02443C10.9441 5.41611 10.7373 4.89535 10.3237 4.46215C9.91018 4.02895 9.41302 3.81236 8.83227 3.81236C8.25152 3.81236 7.75437 4.02895 7.3408 4.46215C6.92724 4.89535 6.72045 5.41611 6.72045 6.02443C6.72045 6.63275 6.92724 7.15351 7.3408 7.58671C7.75437 8.0199 8.25152 8.2365 8.83227 8.2365Z" fill="#000000" fill-rule="nonzero" opacity="0" stroke="none"/>
<path d="M18.3355 9.34254L16.2738 9.34254C15.6629 9.34254 15.1677 8.84735 15.1677 8.2365L15.1677 8.2365C15.1677 7.62565 15.6629 7.13047 16.2738 7.13047L18.3355 7.13047L20.4473 7.13047L22.509 7.13047C23.1198 7.13047 23.615 7.62565 23.615 8.2365L23.615 8.2365C23.615 8.84735 23.1198 9.34254 22.509 9.34254L20.4473 9.34254L18.3355 9.34254ZM8.83227 10.4486C7.67077 10.4486 6.67646 10.0154 5.84933 9.14898C5.0222 8.28259 4.60864 7.24107 4.60864 6.02443C4.60864 4.80779 5.0222 3.76627 5.84933 2.89988C6.67646 2.03348 7.67077 1.60028 8.83227 1.60028C9.99377 1.60028 10.9881 2.03348 11.8152 2.89988C12.6423 3.76627 13.0559 4.80779 13.0559 6.02443C13.0559 7.24107 12.6423 8.28259 11.8152 9.14898C10.9881 10.0154 9.99377 10.4486 8.83227 10.4486ZM1.49104 22.3997C0.880189 22.3997 0.385 21.9045 0.385 21.2937L0.385 16.2C0.385 15.5732 0.538987 14.9972 0.84696 14.4718C1.15493 13.9464 1.5641 13.5455 2.07445 13.269C3.16556 12.6975 4.27427 12.2689 5.40057 11.9832C6.52687 11.6975 7.67077 11.5546 8.83227 11.5546C9.99377 11.5546 11.1377 11.6975 12.264 11.9832C13.3903 12.2689 14.499 12.6975 15.5901 13.269C16.1004 13.5455 16.5096 13.9464 16.8176 14.4718C17.1256 14.9972 17.2795 15.5732 17.2795 16.2L17.2795 21.2937C17.2795 21.9045 16.7844 22.3997 16.1735 22.3997L1.49104 22.3997ZM2.49682 20.1876L15.1677 20.1876L15.1677 16.2C15.1677 15.9972 15.1193 15.8129 15.0225 15.6469C14.9257 15.481 14.7982 15.352 14.6398 15.2598C13.6895 14.7621 12.7303 14.3888 11.7624 14.14C10.7945 13.8911 9.81779 13.7667 8.83227 13.7667C7.84676 13.7667 6.87004 13.8911 5.90213 14.14C4.93421 14.3888 3.97509 14.7621 3.02477 15.2598C2.86639 15.352 2.7388 15.481 2.64201 15.6469C2.54521 15.8129 2.49682 15.9972 2.49682 16.2L2.49682 20.1876ZM8.83227 8.2365C9.41302 8.2365 9.91018 8.0199 10.3237 7.58671C10.7373 7.15351 10.9441 6.63275 10.9441 6.02443C10.9441 5.41611 10.7373 4.89535 10.3237 4.46215C9.91018 4.02895 9.41302 3.81236 8.83227 3.81236C8.25152 3.81236 7.75437 4.02895 7.3408 4.46215C6.92724 4.89535 6.72045 5.41611 6.72045 6.02443C6.72045 6.63275 6.92724 7.15351 7.3408 7.58671C7.75437 8.0199 8.25152 8.2365 8.83227 8.2365Z" fill="#000000" fill-rule="nonzero" opacity="0" stroke="none"/>
</g>
</svg>
