<?xml version="1.0" encoding="UTF-8" standalone="no"?>
<!DOCTYPE svg PUBLIC "-//W3C//DTD SVG 1.1//EN" "http://www.w3.org/Graphics/SVG/1.1/DTD/svg11.dtd">
<!-- Created with Vectornator (http://vectornator.io/) -->
<svg height="100%" stroke-miterlimit="10" style="fill-rule:nonzero;clip-rule:evenodd;stroke-linecap:round;stroke-linejoin:round;" version="1.1" viewBox="0 0 1024 1024" width="100%" xml:space="preserve" xmlns="http://www.w3.org/2000/svg" xmlns:vectornator="http://vectornator.io" xmlns:xlink="http://www.w3.org/1999/xlink">
<defs/>
<g id="Layer-1" vectornator:layerName="Layer 1">
<g opacity="1" vectornator:layerName="Stroke">
<path d="M511.438 140.812C511.158 140.834 510.949 140.924 510.844 141.125C510.12 141.848 510.649 141.568 510.125 141.844C509.823 142.003 509.616 142.353 509.375 142.594C508.892 143.076 508.42 143.549 507.938 144.031C506.489 145.477 505.042 146.93 503.594 148.375C498.284 153.675 492.966 158.95 487.656 164.25C468.332 183.538 448.941 202.767 429.531 221.969C386.975 264.071 343.947 305.698 301.188 347.594C274.59 373.654 248.106 399.79 221.688 426.031C200.154 447.42 178.682 468.884 157.219 490.344C152.156 495.405 147.093 500.469 142.031 505.531C141.549 506.013 141.076 506.518 140.594 507C140.112 507.482 139.638 507.955 139.156 508.438C138.249 509.345 137.039 510.266 137.312 511.719C137.58 513.139 139.283 514.471 140.25 515.438C140.491 515.679 140.728 515.915 140.969 516.156C141.451 516.638 141.924 517.112 142.406 517.594C145.781 520.968 149.156 524.344 152.531 527.719C166.033 541.218 179.526 554.724 193.031 568.219C244.163 619.311 295.319 670.395 346.438 721.5C387.19 762.242 427.927 803.016 468.75 843.688C478.904 853.804 489.059 863.921 499.219 874.031C500.67 875.476 502.111 876.899 503.562 878.344C504.53 879.307 505.501 880.287 506.469 881.25C508.309 883.081 509.664 884.714 512.594 884.906C513.535 884.968 514.511 884.836 515.344 884.375C515.993 884.016 516.61 883.268 517.125 882.75C517.845 882.025 518.561 881.287 519.281 880.562C521.442 878.388 523.621 876.205 525.781 874.031C536.584 863.161 547.389 852.312 558.188 841.438C602.576 796.738 646.936 752.024 691.312 707.312C738.806 659.461 786.319 611.602 833.812 563.75C846.285 551.183 858.748 538.632 871.219 526.062C874.336 522.92 877.445 519.767 880.562 516.625C881.042 516.142 881.52 515.671 882 515.188C882.24 514.946 882.479 514.679 882.719 514.438C883.165 513.988 884.126 513.266 884.25 512.594C884.443 511.546 883.194 510.628 882.531 509.969C882.289 509.728 882.055 509.491 881.812 509.25C881.57 509.009 881.336 508.741 881.094 508.5C880.852 508.259 880.617 508.022 880.375 507.781C879.891 507.3 879.391 506.825 878.906 506.344C873.82 501.29 868.742 496.241 863.656 491.188C841.86 469.528 820.047 447.878 798.25 426.219C757.321 385.547 716.31 344.946 675.469 304.188C648.685 277.458 621.976 250.663 595.219 223.906C575.693 204.381 556.15 184.869 536.625 165.344C531.322 160.041 526.022 154.741 520.719 149.438C519.031 147.75 517.344 146.062 515.656 144.375C515.174 143.893 514.701 143.42 514.219 142.938C514.039 142.758 513.666 142.384 513.125 141.844C513.022 141.535 512.785 141.246 512.375 141.031C512.054 140.863 511.717 140.791 511.438 140.812ZM512.375 143.125C512.496 143.22 512.583 143.333 512.688 143.438C512.929 143.679 513.165 143.946 513.406 144.188C514.612 145.393 515.826 146.576 517.031 147.781C522.334 153.084 527.634 158.384 532.938 163.688C555.114 185.864 577.292 208.042 599.469 230.219C624.297 255.047 649.134 279.865 673.938 304.719C711.446 342.303 748.791 380.054 786.219 417.719C807.092 438.724 827.97 459.713 848.844 480.719C855.801 487.721 862.761 494.717 869.719 501.719C873.023 505.044 876.278 508.437 879.625 511.719C879.383 511.959 879.148 512.197 878.906 512.438C878.422 512.918 877.922 513.394 877.438 513.875C875.499 515.798 873.563 517.733 871.625 519.656C865.81 525.426 860.002 531.199 854.188 536.969C836.502 554.519 818.809 572.073 801.125 589.625C727 663.196 652.855 736.752 578.75 810.344C563.01 825.974 547.265 841.582 531.531 857.219C526.448 862.27 521.364 867.324 516.281 872.375C514.673 873.973 513.08 875.59 511.469 877.188C511.324 877.042 511.176 876.896 511.031 876.75C508.629 874.336 506.214 871.914 503.812 869.5C496.607 862.259 489.429 855.018 482.219 847.781C460.815 826.298 439.379 804.852 417.938 783.406C353.35 718.806 288.787 654.181 224.219 589.562C206.631 571.961 189.03 554.378 171.438 536.781C165.653 530.996 159.878 525.192 154.094 519.406C152.166 517.478 150.241 515.553 148.312 513.625C147.969 513.282 147.625 512.937 147.281 512.594C149.701 510.236 152.081 507.825 154.469 505.438C159.532 500.376 164.595 495.312 169.656 490.25C193.988 465.914 218.28 441.541 242.531 417.125C306.726 352.494 369.841 286.821 433.906 222.062C454.025 201.727 474.167 181.403 494.375 161.156C498.949 156.573 503.519 151.989 508.094 147.406C509.298 146.2 510.515 145.019 511.719 143.812C511.83 143.701 512.255 143.245 512.375 143.125Z" fill="#1e1e2e" stroke="none"/>
</g>
<g opacity="1" vectornator:layerName="Group 1">
<g opacity="1" vectornator:layerName="Group 2">
<path d="M368.839 671.015L422.629 671.015L435.91 595.089C559.429 591.548 623.844 542.406 623.844 451.648C623.844 386.348 579.13 352.258 493.685 352.258C465.351 352.258 441.444 353.808 424.178 356.685L368.839 671.015ZM444.765 544.619L469.778 402.728C476.862 402.507 484.167 402.507 491.693 402.507C541.942 402.507 568.062 421.322 568.062 457.182C568.062 511.415 526.004 541.299 444.765 544.619Z" fill="#1e1e2e" fill-rule="nonzero" opacity="1" stroke="none"/>
</g>
<g opacity="1" vectornator:layerName="Group 1">
<path d="M455.48 671.742C468.772 671.742 476.616 662.227 476.616 646.102C476.616 637.096 471.387 631.793 462.525 631.793C449.233 631.793 441.389 641.454 441.389 657.796C441.389 666.548 446.619 671.742 455.48 671.742ZM457.078 663.389C452.974 663.389 450.577 660.593 450.577 655.871C450.577 645.993 454.536 640.146 461.182 640.146C465.14 640.146 467.428 642.943 467.428 647.664C467.428 657.542 463.579 663.389 457.078 663.389Z" fill="#1e1e2e" fill-rule="nonzero" opacity="1" stroke="none"/>
<path d="M503.6 671.015L510.173 671.015C518.163 661.864 523.029 649.08 523.392 632.52L514.386 632.52C514.204 645.194 511.735 655.181 508.139 662.699L507.486 662.699L506.832 632.157L499.46 632.52L499.968 653.366L495.21 662.699L494.557 662.699L493.068 632.157L483.952 632.52L487.33 671.015L495.247 671.015L502.329 657.397L503.236 657.397L503.6 671.015Z" fill="#1e1e2e" fill-rule="nonzero" opacity="1" stroke="none"/>
<path d="M526.77 671.015L535.885 671.015L539.008 653.329C541.006 643.487 545.037 640.146 549.722 640.146C553.208 640.146 554.734 642.434 553.971 646.829L549.722 671.015L558.837 671.015L563.123 646.829C564.866 636.914 561.597 631.793 553.571 631.793C547.724 631.793 543.584 634.844 541.986 640.219L541.079 640.219L541.296 632.52L533.561 632.52L526.77 671.015Z" fill="#1e1e2e" fill-rule="nonzero" opacity="1" stroke="none"/>
<path d="M589.997 663.389C584.985 663.389 581.826 661.065 581.172 657.07C598.495 656.634 608.047 651.84 608.047 642.616C608.047 635.825 603.543 631.793 595.917 631.793C581.971 631.793 572.71 641.635 572.71 656.452C572.71 666.076 578.848 671.742 589.235 671.742C594.065 671.742 599.657 670.507 604.306 667.82L601.8 660.157C597.987 662.19 593.629 663.389 589.997 663.389ZM581.644 650.569C583.242 644.032 588 639.965 594.464 639.965C597.442 639.965 599.113 641.199 599.113 643.269C599.113 647.446 592.685 650.097 581.644 650.569Z" fill="#1e1e2e" fill-rule="nonzero" opacity="1" stroke="none"/>
<path d="M610.698 671.015L637.136 671.015L638.516 663.244L629.51 663.244L631.108 654.092L631.108 654.201C632.996 643.669 636.991 640.146 641.712 640.146C644.908 640.146 646.288 642.434 645.634 646.756L654.786 646.756C656.348 637.059 653.007 631.793 645.271 631.793C639.533 631.793 635.538 635.098 633.94 640.873L632.996 640.873C632.851 634.735 629.546 631.793 622.719 631.793C619.523 631.793 616.508 632.193 613.567 633.028L614.547 640.945C616.545 640.4 618.506 640.11 620.467 640.11C623.263 640.11 624.208 641.563 623.663 644.758L620.394 663.244L612.078 663.244L610.698 671.015Z" fill="#1e1e2e" fill-rule="nonzero" opacity="1" stroke="none"/>
</g>
</g>
</g>
</svg>
