<?xml version="1.0" encoding="UTF-8" standalone="no"?>
<!DOCTYPE svg PUBLIC "-//W3C//DTD SVG 1.1//EN" "http://www.w3.org/Graphics/SVG/1.1/DTD/svg11.dtd">
<!-- Created with Vectornator (http://vectornator.io/) -->
<svg height="100%" stroke-miterlimit="10" style="fill-rule:nonzero;clip-rule:evenodd;stroke-linecap:round;stroke-linejoin:round;" version="1.1" viewBox="0 0 24 24" width="100%" xml:space="preserve" xmlns="http://www.w3.org/2000/svg" xmlns:vectornator="http://vectornator.io" xmlns:xlink="http://www.w3.org/1999/xlink">
<defs/>
<clipPath id="ArtboardFrame">
<rect height="24" width="24" x="0" y="0"/>
</clipPath>
<g clip-path="url(#ArtboardFrame)" id="Untitled" vectornator:layerName="Untitled">
<path d="M10.3523 16.1576C10.3523 14.554 10.4958 13.4007 10.7829 12.6979C11.0699 11.9951 11.6787 11.2279 12.6092 10.3964C13.421 9.68362 14.0396 9.06493 14.4653 8.54028C14.891 8.01564 15.1038 7.41674 15.1038 6.74361C15.1038 5.93189 14.8316 5.25875 14.2871 4.7242C13.7427 4.18966 12.9854 3.92238 12.0153 3.92238C11.0056 3.92238 10.2384 4.22925 9.71376 4.84299C9.18911 5.45673 8.8179 6.08037 8.60012 6.71391C8.60012 6.71391 8.09497 7.87014 6.65769 7.45738C5.22042 7.04461 5.54132 5.40724 5.54132 5.40724C5.95708 4.14016 6.7193 3.04137 7.82799 2.11086C8.93669 1.18035 10.3325 0.715092 12.0153 0.715092C14.0941 0.715092 15.6928 1.29419 16.8114 2.45237C17.93 3.61056 18.4893 5.00138 18.4893 6.62482C18.4893 7.61472 18.2764 8.46109 17.8508 9.16392C17.4251 9.86676 16.7569 10.6636 15.8462 11.5545C14.8761 12.4851 14.2871 13.1928 14.0792 13.6779C13.8714 14.1629 13.7674 14.9895 13.7674 16.1576C13.7674 16.1576 13.6801 17.5472 12.0718 17.5472C10.4636 17.5472 10.3523 16.1576 10.3523 16.1576ZM12.0153 23.2849C11.362 23.2849 10.8027 23.0523 10.3374 22.587C9.87215 22.1218 9.63952 21.5625 9.63952 20.9091C9.63952 20.2558 9.87215 19.6965 10.3374 19.2313C10.8027 18.766 11.362 18.5334 12.0153 18.5334C12.6686 18.5334 13.2279 18.766 13.6932 19.2313C14.1584 19.6965 14.3911 20.2558 14.3911 20.9091C14.3911 21.5625 14.1584 22.1218 13.6932 22.587C13.2279 23.0523 12.6686 23.2849 12.0153 23.2849Z" fill="#000000" fill-rule="nonzero" opacity="0" stroke="none" vectornator:layerName="QuestionMark"/>
<path d="M17 10C13.141 10 10 13.141 10 17C10 20.859 13.141 24 17 24C20.859 24 24 20.859 24 17C24 13.141 20.859 10 17 10ZM17 22C14.243 22 12 19.757 12 17C12 14.243 14.243 12 17 12C19.757 12 22 14.243 22 17C22 19.757 19.757 22 17 22ZM20.5 17C20.5 17.553 20.053 18 19.5 18L18 18L18 19.5C18 20.053 17.553 20.5 17 20.5C16.447 20.5 16 20.053 16 19.5L16 18L14.5 18C13.947 18 13.5 17.553 13.5 17C13.5 16.447 13.947 16 14.5 16L16 16L16 14.5C16 13.947 16.447 13.5 17 13.5C17.553 13.5 18 13.947 18 14.5L18 16L19.5 16C20.053 16 20.5 16.447 20.5 17ZM9 22L4 22C2.897 22 2 21.103 2 20C2 18.897 2.897 18 4 18L7 18C7.553 18 8 17.553 8 17C8 16.447 7.553 16 7 16L6 16L6 2L15 2C16.654 2 18 3.346 18 5L18 7C18 7.553 18.447 8 19 8C19.553 8 20 7.553 20 7L20 5C20 2.243 17.757 0 15 0L5 0C2.243 0-2.66454e-15 2.243-2.66454e-15 5L-2.66454e-15 20C-2.66454e-15 22.206 1.794 24 4 24L9 24C9.553 24 10 23.553 10 23C10 22.447 9.553 22 9 22ZM2 5C2 3.698 2.839 2.598 4 2.184L4 16C3.268 16 2.591 16.212 2 16.556L2 5Z" fill="#000000" fill-rule="nonzero" opacity="0" stroke="none" vectornator:layerName="SkillAdd"/>
</g>
</svg>
